<?xml version="1.0" encoding="utf-8"?>
<!-- Generator: Adobe Illustrator 21.1.0, SVG Export Plug-In . SVG Version: 6.00 Build 0)  -->
<svg version="1.1" id="Layer_1" xmlns="http://www.w3.org/2000/svg" xmlns:xlink="http://www.w3.org/1999/xlink" x="0px" y="0px"
	 viewBox="0 0 718 229" style="enable-background:new 0 0 718 229;" xml:space="preserve">
<style type="text/css">
	.st0{fill:#FFFFFF;}
	.st1{fill:none;stroke:#77787B;stroke-width:0.5;stroke-miterlimit:10;stroke-dasharray:2.0318;}
	.st2{fill:none;stroke:#77787B;stroke-width:0.5;stroke-miterlimit:10;}
	.st3{fill:none;stroke:#77787B;stroke-width:0.5;stroke-miterlimit:10;stroke-dasharray:2.0255,2.0255;}
	.st4{fill:none;stroke:#77787B;stroke-width:0.5;stroke-miterlimit:10;stroke-dasharray:2.0766,2.0766;}
	.st5{fill:none;stroke:#77787B;stroke-width:0.5;stroke-miterlimit:10;stroke-dasharray:2.0735,2.0735;}
	.st6{fill:none;stroke:#000000;stroke-miterlimit:10;}
	.st7{fill:none;stroke:#FFFFFF;stroke-miterlimit:10;}
</style>
<g>
	<path d="M292.2,91.3c0.4,0,0.7,0.1,0.9,0.4c0.2,0.2,0.4,0.5,0.4,0.9v44c0,0.4-0.1,0.7-0.4,0.9c-0.2,0.2-0.5,0.4-0.9,0.4H283
		c-0.4,0-0.7-0.1-0.9-0.4c-0.2-0.2-0.4-0.5-0.4-0.9v-15.4c0-0.4-0.1-0.6-0.3-0.9c-0.2-0.2-0.5-0.3-0.9-0.3h-13.2
		c-0.4,0-0.7,0.1-0.9,0.3c-0.2,0.2-0.4,0.5-0.4,0.9v15.4c0,0.8-0.4,1.3-1.3,1.3h-9.2c-0.8,0-1.3-0.4-1.3-1.3v-44
		c0-0.8,0.4-1.3,1.3-1.3h9.2c0.8,0,1.3,0.4,1.3,1.3v14.9c0,0.8,0.4,1.3,1.3,1.3h13.2c0.4,0,0.6-0.1,0.9-0.4c0.2-0.2,0.3-0.5,0.3-0.9
		V92.5c0-0.4,0.1-0.7,0.4-0.9c0.2-0.2,0.5-0.4,0.9-0.4H292.2z"/>
	<path d="M353.4,91.6c0.1,0.2,0.1,0.5-0.1,0.8l-15,27.1c-0.2,0.3-0.3,0.7-0.4,1.1c-0.1,0.4-0.2,0.8-0.2,1.2v14.8
		c0,0.4-0.1,0.7-0.3,0.9c-0.2,0.2-0.5,0.4-0.9,0.4h-9.2c-0.4,0-0.7-0.1-0.9-0.4c-0.2-0.2-0.4-0.5-0.4-0.9v-14.8
		c0-0.4-0.1-0.8-0.2-1.2c-0.1-0.4-0.3-0.8-0.4-1.1l-14.9-27.1c-0.2-0.3-0.2-0.6-0.1-0.8c0.1-0.2,0.4-0.3,0.7-0.3h10
		c0.4,0,0.7,0.1,1,0.3c0.3,0.2,0.6,0.5,0.8,0.8l8.9,17.5l8.9-17.5c0.2-0.3,0.4-0.6,0.8-0.8c0.4-0.2,0.7-0.3,1.1-0.3h10
		C353,91.3,353.3,91.4,353.4,91.6z"/>
	<path d="M398.1,91.3c1.1,0,2.1,0.2,3,0.6c1,0.4,1.8,1,2.5,1.7c0.7,0.7,1.2,1.5,1.7,2.5s0.6,2,0.6,3v17.6c0,1.1-0.2,2.1-0.6,3
		s-1,1.8-1.7,2.5c-0.7,0.7-1.5,1.2-2.5,1.7c-1,0.4-2,0.6-3,0.6h-14.8c-0.4,0-0.7,0.1-0.9,0.3c-0.2,0.2-0.4,0.5-0.4,0.9v10.9
		c0,0.8-0.4,1.3-1.3,1.3h-9.2c-0.8,0-1.3-0.4-1.3-1.3v-44c0-0.8,0.4-1.3,1.3-1.3H398.1z M394.6,113.6v-11.8h-13v11.8H394.6z"/>
	<path d="M460.9,91.6c0.2,0.2,0.4,0.5,0.4,0.9v3.8v2v2.6c0,0.4-0.1,0.6-0.4,0.9c-0.2,0.2-0.5,0.3-0.9,0.3h-4.7h-13.8h-3.7
		c-0.2,0-0.3,0.1-0.3,0.3v7.2c0,0.2,0.1,0.3,0.3,0.3h19c0.4,0,0.6,0.1,0.9,0.4c0.2,0.2,0.3,0.5,0.3,0.9v6.6c0,0.4-0.1,0.7-0.3,0.9
		c-0.2,0.2-0.5,0.4-0.9,0.4h-19c-0.2,0-0.3,0.1-0.3,0.3v3.3v0.1v3.9c0,0.2,0.1,0.3,0.3,0.3h2.8h15h4.5c0.4,0,0.7,0.1,0.9,0.4
		c0.2,0.2,0.4,0.5,0.4,0.9v2.7v3.5v2.2c0,0.4-0.1,0.7-0.4,0.9c-0.2,0.2-0.5,0.4-0.9,0.4h-3.8h-25.3h-4c-0.8,0-1.3-0.4-1.3-1.3v-2.3
		V95.7v-3.2c0-0.4,0.1-0.7,0.4-0.9c0.2-0.2,0.5-0.4,0.9-0.4h4.9h26.1h2.1C460.3,91.3,460.6,91.4,460.9,91.6z"/>
	<path d="M523,136.7c0.2,0.3,0.2,0.6,0.1,0.8c-0.1,0.2-0.4,0.3-0.7,0.3h-10.6c-0.4,0-0.7-0.1-1.1-0.3c-0.4-0.2-0.6-0.5-0.8-0.8
		l-7-12.6c-0.1-0.2-0.2-0.3-0.5-0.3h-7.9c-0.2,0-0.3,0.1-0.3,0.3v12.4c0,0.8-0.4,1.3-1.3,1.3h-9.2c-0.8,0-1.3-0.4-1.3-1.3v-44
		c0-0.8,0.4-1.3,1.3-1.3h30c1.1,0,2.1,0.2,3,0.6c1,0.4,1.8,1,2.5,1.7c0.7,0.7,1.2,1.5,1.7,2.5s0.6,2,0.6,3v17.5
		c0,1.7-0.5,3.2-1.5,4.6c-1,1.4-2.3,2.3-3.8,2.8l-0.2,0.1c-0.3,0.1-0.4,0.2-0.2,0.4l0.1,0.1L523,136.7z M509.7,102.1h-16v11.3h16
		V102.1z"/>
	<path d="M573.7,126.5c0.4,0,0.6,0.1,0.9,0.4c0.2,0.2,0.3,0.5,0.3,0.9v8.8c0,0.4-0.1,0.7-0.3,0.9c-0.2,0.2-0.5,0.4-0.9,0.4H545
		c-0.8,0-1.3-0.4-1.3-1.3v-44c0-0.8,0.4-1.3,1.3-1.3h9.2c0.8,0,1.3,0.4,1.3,1.3v32.8c0,0.4,0.1,0.6,0.4,0.9c0.2,0.2,0.5,0.3,0.9,0.3
		H573.7z"/>
	<path d="M603.7,136.5c0,0.8-0.4,1.3-1.3,1.3h-9.2c-0.8,0-1.3-0.4-1.3-1.3v-44c0-0.8,0.4-1.3,1.3-1.3h9.2c0.8,0,1.3,0.4,1.3,1.3
		V136.5z"/>
	<path d="M657.7,101.3c0,0.4-0.1,0.7-0.4,0.9c-0.2,0.2-0.5,0.4-0.9,0.4H647c-0.4,0-0.7,0.1-0.9,0.3c-0.2,0.2-0.4,0.5-0.4,0.9v32.8
		c0,0.4-0.1,0.7-0.3,0.9c-0.2,0.2-0.5,0.4-0.9,0.4h-9.2c-0.4,0-0.7-0.1-0.9-0.4c-0.2-0.2-0.4-0.5-0.4-0.9v-32.8
		c0-0.4-0.1-0.6-0.3-0.9c-0.2-0.2-0.5-0.3-0.9-0.3h-9.4c-0.4,0-0.7-0.1-0.9-0.4c-0.2-0.2-0.4-0.5-0.4-0.9v-8.8
		c0-0.8,0.4-1.3,1.3-1.3h9.4h2.5h9.2h2.5h9.4c0.4,0,0.7,0.1,0.9,0.4c0.2,0.2,0.4,0.5,0.4,0.9V101.3z"/>
	<path d="M710.3,91.6c0.2,0.2,0.4,0.5,0.4,0.9v3.8v2v2.6c0,0.4-0.1,0.6-0.4,0.9c-0.2,0.2-0.5,0.3-0.9,0.3h-4.7h-13.8h-3.7
		c-0.2,0-0.3,0.1-0.3,0.3v7.2c0,0.2,0.1,0.3,0.3,0.3h19c0.4,0,0.6,0.1,0.9,0.4c0.2,0.2,0.3,0.5,0.3,0.9v6.6c0,0.4-0.1,0.7-0.3,0.9
		c-0.2,0.2-0.5,0.4-0.9,0.4h-19c-0.2,0-0.3,0.1-0.3,0.3v3.3v0.1v3.9c0,0.2,0.1,0.3,0.3,0.3h2.8h15h4.5c0.4,0,0.7,0.1,0.9,0.4
		c0.2,0.2,0.4,0.5,0.4,0.9v2.7v3.5v2.2c0,0.4-0.1,0.7-0.4,0.9c-0.2,0.2-0.5,0.4-0.9,0.4h-3.8h-25.3h-4c-0.8,0-1.3-0.4-1.3-1.3v-2.3
		V95.7v-3.2c0-0.4,0.1-0.7,0.4-0.9c0.2-0.2,0.5-0.4,0.9-0.4h4.9h26.1h2.1C709.8,91.3,710.1,91.4,710.3,91.6z"/>
	<path d="M112.2,6.6L5.7,174.8l106.3,47l106.7-47L112.2,6.6z M112,209.5l-89.5-39.9l89.7-141.3l89.8,141.3L112,209.5z"/>
	<polygon points="171.9,162.3 127.1,91.9 127.1,129.8 102.5,129.8 102.5,141.4 127.1,141.4 127.1,162.3 	"/>
	<polygon points="97.2,162.3 97.2,91.9 52.4,162.3 	"/>
	<g>
		<g>
			<path d="M255.1,154h5l5.8,16.8l5.9-16.8h4.7v20.4h-2.8v-18.4l-6.7,18.4h-2.7l-6.5-18.3v18.3h-2.7V154z"/>
			<path d="M302.8,156.2c2.1-2.3,4.9-2.7,6.8-2.7c5.7,0,9.2,3.6,9.2,10.6c0,5.4-2.2,10.9-9.5,10.9c-7,0-9.2-5-9.2-10.6
				C300.2,162.1,300.6,158.6,302.8,156.2z M305,170.7c1.2,1.4,2.9,1.9,4.5,1.9c1.7,0,3.3-0.5,4.5-1.9c1.7-2,1.8-5.3,1.8-6.7
				c0-4.6-1.5-8.2-6.2-8.2c-5.2,0-6.5,4.2-6.5,8.4C303.2,166.5,303.6,168.9,305,170.7z"/>
			<path d="M345.2,154v12.7c0,2.2,0.5,3.1,0.9,3.7c1.3,1.7,3.3,2,4.7,2c5.5,0,5.5-4.3,5.5-5.8V154h2.7v12.6c0,1.1,0,3.4-1.7,5.4
				c-2,2.5-5.1,2.8-6.6,2.8c-1.9,0-5.3-0.5-7.2-3.3c-0.6-0.9-1.2-2.1-1.2-5.2V154H345.2z"/>
			<path d="M383.7,154h3.9l10.1,16.9V154h2.6v20.4h-3.6l-10.4-17.4v17.4h-2.6V154z"/>
			<path d="M429.1,174.5v-18h-6.9V154h16.5v2.4h-6.9v18H429.1z"/>
			<path d="M464.9,154h3l8.3,20.4h-3.1l-2.2-5.3h-9.5l-2.2,5.3h-2.9L464.9,154z M462.3,166.8h7.7l-3.8-10L462.3,166.8z"/>
			<path d="M498.2,154h2.8v20.4h-2.8V154z"/>
			<path d="M525.5,154h3.9l10.1,16.9V154h2.6v20.4h-3.6l-10.4-17.4v17.4h-2.6V154z"/>
			<path d="M591.7,159.1c-0.3-1.9-1.8-3.2-4.6-3.2c-1.9,0-3.5,0.5-4.6,1.7c-1.8,2-2.2,4.6-2.2,6.6c0,1.7,0.4,4.6,1.9,6.4
				c1.3,1.5,3.4,2,5.4,2c2.3,0,3.8-0.5,4.4-0.7v-6.1h-4.7v-2.4h7.5v10.1c-1.2,0.4-3.8,1.2-7.3,1.2c-3.8,0-6-1.1-7.4-2.5
				c-2-2-2.9-4.9-2.9-7.8c0-2,0.5-6.9,4.4-9.5c2-1.4,4.7-1.4,5.7-1.4c1.6,0,4.1,0.2,6,2.2c1.2,1.3,1.3,2.5,1.4,3.3H591.7z"/>
			<path d="M618.8,154h12.8v2.4h-10v6.4h9.5v2.4h-9.5v6.8h10.2v2.5h-13.1V154z"/>
			<path d="M662,154h3l8.3,20.4h-3.1l-2.2-5.3h-9.5l-2.2,5.3h-2.9L662,154z M659.4,166.8h7.7l-3.8-10L659.4,166.8z"/>
			<path d="M695.3,154h7.3c1,0,3.2,0,4.7,1c1.5,1,2.3,2.5,2.3,4.2c0,1.4-0.5,2.7-1.4,3.6c-0.9,0.9-1.8,1.2-2.4,1.3
				c2,0.5,2.8,1.4,3.1,3.9c0.3,2.4,0.5,4.2,1.3,6.4h-3c-0.5-1.4-0.7-3.9-0.9-5.4c-0.3-3-1-3.8-4.5-3.8h-3.6v9.2h-2.8V154z
				 M698,162.8h4.5c0.3,0,1.9,0,2.7-0.5c0.4-0.2,1.4-1,1.4-2.7c0-3.3-2.9-3.3-4.1-3.3H698V162.8z"/>
		</g>
	</g>
</g>
</svg>
